<svg width="125" height="125" viewBox="0 0 125 125" fill="none" xmlns="http://www.w3.org/2000/svg">
<rect width="125" height="125" fill="white"/>
<path d="M26.0952 93C26.4921 90.5 27.2857 85.5 29.6667 85.5C32.0476 85.5 33.0397 90.5 33.2381 93" stroke="#474747" stroke-linecap="round"/>
<path d="M92.7619 93C93.1587 90.5 93.9524 85.5 96.3333 85.5C98.7143 85.5 99.7063 90.5 99.9048 93" stroke="#474747" stroke-linecap="round"/>
<path d="M16.5714 81.125L13.5952 83.625" stroke="#474747" stroke-width="0.5"/>
<path d="M16.5714 36.75L13.5952 33.625" stroke="#474747" stroke-width="0.5"/>
<path d="M109.429 36.75L112.405 33.625" stroke="#474747" stroke-width="0.5"/>
<path d="M109.429 81.125L113 84.25" stroke="#474747" stroke-width="0.5"/>
<path d="M111 33H15C13.8954 33 13 33.8954 13 35V82.875C13 83.9796 13.8954 84.875 15 84.875H111C112.105 84.875 113 83.9796 113 82.875V35C113 33.8954 112.105 33 111 33Z" stroke="#474747" stroke-width="2" stroke-linecap="round"/>
<path d="M109.024 36.125H16.9762C16.4239 36.125 15.9762 36.5727 15.9762 37.125V80.75C15.9762 81.3023 16.4239 81.75 16.9762 81.75H109.024C109.576 81.75 110.024 81.3023 110.024 80.75V37.125C110.024 36.5727 109.576 36.125 109.024 36.125Z" stroke="#474747"/>
</svg>
