<svg width="125" height="125" viewBox="0 0 125 125" fill="none" xmlns="http://www.w3.org/2000/svg">
<rect width="125" height="125" fill="white"/>
<path d="M90.4286 91.3438C92.4789 91.3438 93.8571 89.5599 93.8571 86.9062V28.1094C93.8571 27.8152 93.7668 27.533 93.6061 27.3249C93.4454 27.1169 93.2273 27 93 27C92.7727 27 92.5547 27.1169 92.3939 27.3249C92.2332 27.533 92.1429 27.8152 92.1429 28.1094V86.9062C92.1429 88.8366 91.068 89.125 90.4286 89.125C90.252 89.125 88.7143 89.0629 88.7143 86.9062V28.1094C88.7143 27.8152 88.624 27.533 88.4632 27.3249C88.3025 27.1169 88.0845 27 87.8571 27C87.6298 27 87.4118 27.1169 87.2511 27.3249C87.0903 27.533 87 27.8152 87 28.1094V86.9062C87 89.8195 88.7246 91.3438 90.4286 91.3438Z" fill="#474747"/>
<path d="M34.7143 73.5938H51.8571C52.0844 73.5938 52.3025 73.4769 52.4632 73.2688C52.624 73.0608 52.7143 72.7786 52.7143 72.4844V52.5156C52.7143 52.2214 52.624 51.9392 52.4632 51.7312C52.3025 51.5231 52.0844 51.4062 51.8571 51.4062H34.7143C34.4869 51.4062 34.2689 51.5231 34.1082 51.7312C33.9474 51.9392 33.8571 52.2214 33.8571 52.5156V72.4844C33.8571 72.7786 33.9474 73.0608 34.1082 73.2688C34.2689 73.4769 34.4869 73.5938 34.7143 73.5938ZM35.5714 53.625H51V71.375H35.5714V53.625Z" fill="#474747"/>
<path d="M34.7143 44.75H75.8571C76.0844 44.75 76.3025 44.6331 76.4632 44.4251C76.624 44.217 76.7143 43.9348 76.7143 43.6406V34.7656C76.7143 34.4714 76.624 34.1892 76.4632 33.9812C76.3025 33.7731 76.0844 33.6562 75.8571 33.6562H34.7143C34.4869 33.6562 34.2689 33.7731 34.1082 33.9812C33.9474 34.1892 33.8571 34.4714 33.8571 34.7656V43.6406C33.8571 43.9348 33.9474 44.217 34.1082 44.4251C34.2689 44.6331 34.4869 44.75 34.7143 44.75ZM35.5714 35.875H75V42.5312H35.5714V35.875Z" fill="#474747"/>
<path d="M75.8571 51.4062H58.7143C58.4869 51.4062 58.2689 51.5231 58.1082 51.7312C57.9474 51.9392 57.8571 52.2214 57.8571 52.5156C57.8571 52.8098 57.9474 53.092 58.1082 53.3001C58.2689 53.5081 58.4869 53.625 58.7143 53.625H75.8571C76.0844 53.625 76.3025 53.5081 76.4632 53.3001C76.624 53.092 76.7143 52.8098 76.7143 52.5156C76.7143 52.2214 76.624 51.9392 76.4632 51.7312C76.3025 51.5231 76.0844 51.4062 75.8571 51.4062Z" fill="#474747"/>
<path d="M75.8571 58.0625H58.7143C58.4869 58.0625 58.2689 58.1794 58.1082 58.3874C57.9474 58.5955 57.8571 58.8777 57.8571 59.1719C57.8571 59.4661 57.9474 59.7483 58.1082 59.9563C58.2689 60.1644 58.4869 60.2812 58.7143 60.2812H75.8571C76.0844 60.2812 76.3025 60.1644 76.4632 59.9563C76.624 59.7483 76.7143 59.4661 76.7143 59.1719C76.7143 58.8777 76.624 58.5955 76.4632 58.3874C76.3025 58.1794 76.0844 58.0625 75.8571 58.0625Z" fill="#474747"/>
<path d="M75.8571 64.7188H58.7143C58.4869 64.7188 58.2689 64.8356 58.1082 65.0437C57.9474 65.2517 57.8571 65.5339 57.8571 65.8281C57.8571 66.1223 57.9474 66.4045 58.1082 66.6126C58.2689 66.8206 58.4869 66.9375 58.7143 66.9375H75.8571C76.0844 66.9375 76.3025 66.8206 76.4632 66.6126C76.624 66.4045 76.7143 66.1223 76.7143 65.8281C76.7143 65.5339 76.624 65.2517 76.4632 65.0437C76.3025 64.8356 76.0844 64.7188 75.8571 64.7188Z" fill="#474747"/>
<path d="M75.8571 71.375H58.7143C58.4869 71.375 58.2689 71.4919 58.1082 71.6999C57.9474 71.908 57.8571 72.1902 57.8571 72.4844C57.8571 72.7786 57.9474 73.0608 58.1082 73.2688C58.2689 73.4769 58.4869 73.5938 58.7143 73.5938H75.8571C76.0844 73.5938 76.3025 73.4769 76.4632 73.2688C76.624 73.0608 76.7143 72.7786 76.7143 72.4844C76.7143 72.1902 76.624 71.908 76.4632 71.6999C76.3025 71.4919 76.0844 71.375 75.8571 71.375Z" fill="#474747"/>
<path d="M75.8571 78.0312H58.7143C58.4869 78.0312 58.2689 78.1481 58.1082 78.3562C57.9474 78.5642 57.8571 78.8464 57.8571 79.1406C57.8571 79.4348 57.9474 79.717 58.1082 79.9251C58.2689 80.1331 58.4869 80.25 58.7143 80.25H75.8571C76.0844 80.25 76.3025 80.1331 76.4632 79.9251C76.624 79.717 76.7143 79.4348 76.7143 79.1406C76.7143 78.8464 76.624 78.5642 76.4632 78.3562C76.3025 78.1481 76.0844 78.0312 75.8571 78.0312Z" fill="#474747"/>
<path d="M34.7143 80.25H51.8571C52.0844 80.25 52.3025 80.1331 52.4632 79.9251C52.624 79.717 52.7143 79.4348 52.7143 79.1406C52.7143 78.8464 52.624 78.5642 52.4632 78.3562C52.3025 78.1481 52.0844 78.0312 51.8571 78.0312H34.7143C34.4869 78.0312 34.2689 78.1481 34.1082 78.3562C33.9474 78.5642 33.8571 78.8464 33.8571 79.1406C33.8571 79.4348 33.9474 79.717 34.1082 79.9251C34.2689 80.1331 34.4869 80.25 34.7143 80.25V80.25Z" fill="#474747"/>
<path d="M75.8571 84.6875H58.7143C58.4869 84.6875 58.2689 84.8044 58.1082 85.0124C57.9474 85.2205 57.8571 85.5027 57.8571 85.7969C57.8571 86.0911 57.9474 86.3733 58.1082 86.5813C58.2689 86.7894 58.4869 86.9062 58.7143 86.9062H75.8571C76.0844 86.9062 76.3025 86.7894 76.4632 86.5813C76.624 86.3733 76.7143 86.0911 76.7143 85.7969C76.7143 85.5027 76.624 85.2205 76.4632 85.0124C76.3025 84.8044 76.0844 84.6875 75.8571 84.6875Z" fill="#474747"/>
<path d="M34.7143 86.9062H51.8571C52.0844 86.9062 52.3025 86.7894 52.4632 86.5813C52.624 86.3733 52.7143 86.0911 52.7143 85.7969C52.7143 85.5027 52.624 85.2205 52.4632 85.0124C52.3025 84.8044 52.0844 84.6875 51.8571 84.6875H34.7143C34.4869 84.6875 34.2689 84.8044 34.1082 85.0124C33.9474 85.2205 33.8571 85.5027 33.8571 85.7969C33.8571 86.0911 33.9474 86.3733 34.1082 86.5813C34.2689 86.7894 34.4869 86.9062 34.7143 86.9062V86.9062Z" fill="#474747"/>
<path d="M35.5714 97.8824H90.4628C90.4748 97.8824 90.4851 97.8735 90.4971 97.8735C92.7329 97.8484 94.8708 96.6824 96.4462 94.6288C98.0216 92.5753 98.9073 89.8001 98.9108 86.9062V28.1093C98.9108 27.8463 98.8301 27.594 98.6864 27.408C98.5427 27.222 98.3478 27.1176 98.1445 27.1176C97.9413 27.1176 97.7464 27.222 97.6027 27.408C97.459 27.594 97.3783 27.8463 97.3783 28.1093V86.9062C97.3783 91.8651 94.2617 95.8988 90.4303 95.8988C86.5988 95.8988 83.4805 91.8651 83.4805 86.9062V28.1093C83.4805 27.5613 83.1377 27.1176 82.7143 27.1176H27.8571C27.4337 27.1176 27.0908 27.5613 27.0908 28.1093V86.9062C27.0931 89.8164 27.9873 92.6065 29.5772 94.6643C31.1672 96.7221 33.3229 97.8794 35.5714 97.8824V97.8824ZM28.6234 29.1011H81.9463V86.9062C81.9463 87.5851 82.0097 88.2441 82.1005 88.892C82.1194 89.0207 82.1348 89.1494 82.1571 89.2758C82.2634 89.8927 82.404 90.4895 82.5874 91.0641C82.62 91.1684 82.6594 91.2661 82.6954 91.3681C82.8805 91.9051 83.0948 92.422 83.3434 92.9101C83.3725 92.9656 83.3948 93.0255 83.424 93.081C83.6948 93.5913 84.0034 94.0639 84.3343 94.5076C84.4063 94.6031 84.4765 94.6962 84.552 94.7894C84.8708 95.1888 85.2068 95.5682 85.5703 95.8988H35.5714C33.7294 95.8959 31.9634 94.9475 30.6609 93.2617C29.3584 91.5759 28.6257 89.2903 28.6234 86.9062V29.1011Z" fill="#474747"/>
</svg>
