<svg width="125" height="125" viewBox="0 0 125 125" fill="none" xmlns="http://www.w3.org/2000/svg">
<rect width="125" height="125" fill="white"/>
<path d="M89 86H37C36.4477 86 36 86.4477 36 87V107C36 107.552 36.4477 108 37 108H89C89.5523 108 90 107.552 90 107V87C90 86.4477 89.5523 86 89 86Z" stroke="#474747"/>
<path d="M34 14H92V12H34V14ZM92 14V112H94V14H92ZM92 112H34V114H92V112ZM34 112V14H32V112H34ZM34 112H34H32C32 113.105 32.8954 114 34 114V112ZM92 112V112V114C93.1046 114 94 113.105 94 112H92ZM92 14H94C94 12.8954 93.1046 12 92 12V14ZM34 12C32.8954 12 32 12.8954 32 14H34V14V12Z" fill="#474747"/>
<path d="M33 36H93" stroke="#474747"/>
<path d="M89 38H37C36.4477 38 36 38.4477 36 39V59C36 59.5523 36.4477 60 37 60H89C89.5523 60 90 59.5523 90 59V39C90 38.4477 89.5523 38 89 38Z" stroke="#474747"/>
<path d="M89 62H37C36.4477 62 36 62.4477 36 63V83C36 83.5523 36.4477 84 37 84H89C89.5523 84 90 83.5523 90 83V63C90 62.4477 89.5523 62 89 62Z" stroke="#474747"/>
<path d="M49 27H76" stroke="#474747" stroke-width="5" stroke-linecap="round"/>
</svg>
