<svg width="125" height="125" viewBox="0 0 125 125" fill="none" xmlns="http://www.w3.org/2000/svg">
<rect width="125" height="125" fill="white"/>
<path d="M100 32V92H81.25C62.9934 92 64.1692 96.9397 62.9934 97C61.8176 97.0603 62.9934 92 44.2434 92H25V32H44.2434C62.9934 32 61.8176 37.0603 62.9934 37C64.1692 36.9397 62.9934 32 81.25 32H100Z" stroke="#474747" stroke-width="2"/>
<path d="M31 33V31L51.5 31.5L59 35L31 33Z" fill="#FFF8F8" stroke="white"/>
<path d="M95 33V31L74.5 31.5L67 35L95 33Z" fill="#FFF8F8" stroke="white"/>
<path d="M63 95C57.3729 89.3479 50.7277 83.1087 30 84.367V28.1635C50.7277 26.9053 57.3729 33.1445 63 38.7966M63 95V38.7966M63 95C68.6271 89.3479 75.2723 83.1087 96 84.367V28.1635C75.2723 26.9053 68.6271 33.1445 63 38.7966" stroke="#474747"/>
</svg>
