<svg width="125" height="125" viewBox="0 0 125 125" fill="none" xmlns="http://www.w3.org/2000/svg">
<rect width="125" height="125" fill="white"/>
<path d="M89 98V28C89 26.8954 88.1046 26 87 26H34C32.8954 26 32 26.8954 32 28V98C32 99.1046 32.8954 100 34 100H87C88.1046 100 89 99.1046 89 98Z" stroke="#474747" stroke-width="2"/>
<path d="M85 29H36C35.4477 29 35 29.4477 35 30V92C35 92.5523 35.4477 93 36 93H85C85.5523 93 86 92.5523 86 92V30C86 29.4477 85.5523 29 85 29Z" stroke="#474747" stroke-width="0.5"/>
<circle cx="61" cy="96" r="1.75" fill="white" stroke="#474747" stroke-width="0.5"/>
<path d="M103.678 55.7274L94.1455 86.9129C94.0606 87.1905 94.1813 87.4896 94.4351 87.6306C94.7774 87.8208 95.2079 87.6471 95.3223 87.2726L104.855 56.0871C104.939 55.8095 104.819 55.5104 104.565 55.3694C104.223 55.1792 103.792 55.3529 103.678 55.7274Z" stroke="#474747" stroke-width="0.5"/>
<path d="M102.5 59H104" stroke="#474747" stroke-width="0.5"/>
</svg>
