<svg width="125" height="125" viewBox="0 0 125 125" fill="none" xmlns="http://www.w3.org/2000/svg">
<rect width="125" height="125" fill="white"/>
<path d="M101.881 43.5194C104.089 44.3023 104.792 45.36 105 48.4709L104.251 60.8495M101.881 43.5194C101.881 43.5194 26.2388 43.5194 25.459 43.5194C24.6792 43.5194 22.7297 45.9951 22.7297 45.9951M101.881 43.5194C106.377 42.3485 105 35.6796 101.881 35.6796C98.7615 35.6796 69.5185 35.6796 69.5185 35.6796L64.6446 31.1408L63.3154 29.9029M22.7297 45.9951C21.9187 47.233 21.1701 47.6456 21.1701 49.2961C21.1701 50.9466 21.9187 60.8495 21.9187 60.8495M22.7297 45.9951C21.0622 43.8526 20.007 42.4713 20.0004 38.568C19.9937 34.6646 20.0004 26.6019 27.7985 26.6019C35.5966 26.6019 59.7708 26.6019 59.7708 26.6019L63.3154 29.9029M63.3154 29.9029L93.3028 20M21.9187 60.8495H45.7342M21.9187 60.8495L23.2163 82.3058M45.7342 60.8495C45.7342 56.3107 47.6837 56.7233 49.2433 56.7233H77.7065C79.2661 56.7233 81.2157 56.3107 81.2157 60.8495M45.7342 60.8495V66.6262H81.2157V60.8495M81.2157 60.8495H104.251M104.251 60.8495L102.954 82.3058M23.2163 82.3058L24.2893 100.049C24.2893 100.049 24.6792 105 28.9682 105C33.2572 105 49.2433 105 49.2433 105M23.2163 82.3058H61.3304M73.0277 82.3058H102.954M102.954 82.3058L101.881 100.049C101.231 103.301 99.5413 105 96.4221 105C93.3028 105 77.7065 105 77.7065 105M49.2433 105V95.5097H77.7065V105M49.2433 105H77.7065" stroke="#474747" stroke-width="2" stroke-linecap="round" stroke-linejoin="round"/>
</svg>
